{
  "accessors": [
    {
      "bufferView": 2,
      "componentType": 5126,
      "count": 65532,
      "max": [
        7.310604572296143,
        4.570064544677734,
        12.895641326904297
      ],
      "min": [
        -3.6843786239624023,
        -4.85009765625,
        -0.2700310945510864
      ],
      "type": "VEC3"
    },
    {
      "bufferView": 2,
      "byteOffset": 786384,
      "componentType": 5126,
      "count": 65532,
      "max": [
        0.9999658465385437,
        0.9999861121177673,
        0.9999998211860657
      ],
      "min": [
        -0.9999727606773376,
        -0.9999934434890747,
        -0.7758346796035767
      ],
      "type": "VEC3"
    },
    {
      "bufferView": 1,
      "componentType": 5126,
      "count": 65532,
      "max": [
        0.999267578125,
        0.998410165309906
      ],
      "min": [
        0.000732421875,
        0.000733792781829834
      ],
      "type": "VEC2"
    },
    {
      "bufferView": 1,
      "byteOffset": 524256,
      "componentType": 5126,
      "count": 65532,
      "max": [
        0.999267578125,
        0.998410165309906
      ],
      "min": [
        0.000732421875,
        0.000733792781829834
      ],
      "type": "VEC2"
    },
    {
      "bufferView": 0,
      "componentType": 5125,
      "count": 353604,
      "type": "SCALAR"
    },
    {
      "bufferView": 2,
      "byteOffset": 1572768,
      "componentType": 5126,
      "count": 65532,
      "max": [
        7.408144474029541,
        6.293078422546387,
        12.208982467651367
      ],
      "min": [
        -5.366359710693359,
        -4.28487491607666,
        -0.18414169549942017
      ],
      "type": "VEC3"
    },
    {
      "bufferView": 2,
      "byteOffset": 2359152,
      "componentType": 5126,
      "count": 65532,
      "max": [
        0.999999463558197,
        0.9999902844429016,
        0.9999881982803345
      ],
      "min": [
        -0.9999902248382568,
        -0.999992311000824,
        -0.950013279914856
      ],
      "type": "VEC3"
    },
    {
      "bufferView": 1,
      "byteOffset": 1048512,
      "componentType": 5126,
      "count": 65532,
      "max": [
        0.999267578125,
        0.9992662072181702
      ],
      "min": [
        0.000732421875,
        0.000733792781829834
      ],
      "type": "VEC2"
    },
    {
      "bufferView": 1,
      "byteOffset": 1572768,
      "componentType": 5126,
      "count": 65532,
      "max": [
        0.999267578125,
        0.9992662072181702
      ],
      "min": [
        0.000732421875,
        0.000733792781829834
      ],
      "type": "VEC2"
    },
    {
      "bufferView": 0,
      "byteOffset": 1414416,
      "componentType": 5125,
      "count": 355431,
      "type": "SCALAR"
    },
    {
      "bufferView": 2,
      "byteOffset": 3145536,
      "componentType": 5126,
      "count": 65532,
      "max": [
        5.482579708099365,
        6.255572319030762,
        11.073677062988281
      ],
      "min": [
        -5.3678297996521,
        -4.725676536560059,
        -0.37825334072113037
      ],
      "type": "VEC3"
    },
    {
      "bufferView": 2,
      "byteOffset": 3931920,
      "componentType": 5126,
      "count": 65532,
      "max": [
        0.9998160600662231,
        0.9999260902404785,
        0.9999968409538269
      ],
      "min": [
        -0.9999532699584961,
        -0.9999985098838806,
        -0.9872022271156311
      ],
      "type": "VEC3"
    },
    {
      "bufferView": 1,
      "byteOffset": 2097024,
      "componentType": 5126,
      "count": 65532,
      "max": [
        0.999267578125,
        0.9990216493606567
      ],
      "min": [
        0.000732421875,
        0.000733792781829834
      ],
      "type": "VEC2"
    },
    {
      "bufferView": 1,
      "byteOffset": 2621280,
      "componentType": 5126,
      "count": 65532,
      "max": [
        0.999267578125,
        0.9990216493606567
      ],
      "min": [
        0.000732421875,
        0.000733792781829834
      ],
      "type": "VEC2"
    },
    {
      "bufferView": 0,
      "byteOffset": 2836140,
      "componentType": 5125,
      "count": 344115,
      "type": "SCALAR"
    },
    {
      "bufferView": 2,
      "byteOffset": 4718304,
      "componentType": 5126,
      "count": 39448,
      "max": [
        6.971495151519775,
        5.154241561889648,
        8.121292114257813
      ],
      "min": [
        -5.074468612670898,
        -2.5219357013702393,
        -0.02510887384414673
      ],
      "type": "VEC3"
    },
    {
      "bufferView": 2,
      "byteOffset": 5191680,
      "componentType": 5126,
      "count": 39448,
      "max": [
        0.9999876618385315,
        0.9999996423721313,
        0.9999822974205017
      ],
      "min": [
        -0.9999889135360718,
        -0.9999733567237854,
        -0.8638228178024292
      ],
      "type": "VEC3"
    },
    {
      "bufferView": 1,
      "byteOffset": 3145536,
      "componentType": 5126,
      "count": 39448,
      "max": [
        0.999267578125,
        0.9986547827720642
      ],
      "min": [
        0.002197265625,
        0.0145530104637146
      ],
      "type": "VEC2"
    },
    {
      "bufferView": 1,
      "byteOffset": 3461120,
      "componentType": 5126,
      "count": 39448,
      "max": [
        0.999267578125,
        0.9986547827720642
      ],
      "min": [
        0.002197265625,
        0.0145530104637146
      ],
      "type": "VEC2"
    },
    {
      "bufferView": 0,
      "byteOffset": 4212600,
      "componentType": 5125,
      "count": 205656,
      "type": "SCALAR"
    }
  ],
  "asset": {
    "extras": {
      "author": "alisha-m (https://sketchfab.com/alisha-m)",
      "license": "CC-BY-NC-4.0 (http://creativecommons.org/licenses/by-nc/4.0/)",
      "source": "https://sketchfab.com/3d-models/ganesh-e379f5f88d6842819d1a38cb2ffcc8be",
      "title": "Ganesh"
    },
    "generator": "Sketchfab-12.68.0",
    "version": "2.0"
  },
  "bufferViews": [
    {
      "buffer": 0,
      "byteLength": 5035224,
      "name": "floatBufferViews",
      "target": 34963
    },
    {
      "buffer": 0,
      "byteLength": 3776704,
      "byteOffset": 5035224,
      "byteStride": 8,
      "name": "floatBufferViews",
      "target": 34962
    },
    {
      "buffer": 0,
      "byteLength": 5665056,
      "byteOffset": 8811928,
      "byteStride": 12,
      "name": "floatBufferViews",
      "target": 34962
    }
  ],
  "buffers": [
    {
      "byteLength": 14476984,
      "uri": "scene.bin"
    }
  ],
  "images": [
    {
      "uri": "textures/Material_0_baseColor.jpeg"
    }
  ],
  "materials": [
    {
      "doubleSided": true,
      "name": "Material_0",
      "pbrMetallicRoughness": {
        "baseColorTexture": {
          "index": 0
        },
        "metallicFactor": 0.0
      }
    }
  ],
  "meshes": [
    {
      "name": "mainMeshNode_Material_0_0",
      "primitives": [
        {
          "attributes": {
            "NORMAL": 1,
            "POSITION": 0,
            "TEXCOORD_0": 2,
            "TEXCOORD_1": 3
          },
          "indices": 4,
          "material": 0,
          "mode": 4
        }
      ]
    },
    {
      "name": "mainMeshNode_Material_0_0",
      "primitives": [
        {
          "attributes": {
            "NORMAL": 6,
            "POSITION": 5,
            "TEXCOORD_0": 7,
            "TEXCOORD_1": 8
          },
          "indices": 9,
          "material": 0,
          "mode": 4
        }
      ]
    },
    {
      "name": "mainMeshNode_Material_0_0",
      "primitives": [
        {
          "attributes": {
            "NORMAL": 11,
            "POSITION": 10,
            "TEXCOORD_0": 12,
            "TEXCOORD_1": 13
          },
          "indices": 14,
          "material": 0,
          "mode": 4
        }
      ]
    },
    {
      "name": "mainMeshNode_Material_0_0",
      "primitives": [
        {
          "attributes": {
            "NORMAL": 16,
            "POSITION": 15,
            "TEXCOORD_0": 17,
            "TEXCOORD_1": 18
          },
          "indices": 19,
          "material": 0,
          "mode": 4
        }
      ]
    }
  ],
  "nodes": [
    {
      "children": [
        1
      ],
      "matrix": [
        1.0,
        0.0,
        0.0,
        0.0,
        0.0,
        2.220446049250313e-16,
        -1.0,
        0.0,
        0.0,
        1.0,
        2.220446049250313e-16,
        0.0,
        0.0,
        0.0,
        0.0,
        1.0
      ],
      "name": "Sketchfab_model"
    },
    {
      "children": [
        2
      ],
      "matrix": [
        1.0,
        0.0,
        0.0,
        0.0,
        0.0,
        0.0,
        1.0,
        0.0,
        0.0,
        -1.0,
        0.0,
        0.0,
        0.0,
        0.0,
        0.0,
        1.0
      ],
      "name": "590b481603a044d7b3513e3ad36280b9.fbx"
    },
    {
      "children": [
        3,
        5,
        7,
        9,
        11,
        13,
        15,
        17,
        19,
        21,
        23,
        25,
        27,
        29,
        31,
        33,
        35,
        37,
        39,
        41,
        43,
        45,
        47,
        49,
        51,
        53,
        55,
        57,
        59,
        61,
        63,
        65,
        67,
        69,
        71,
        73,
        75,
        77,
        79,
        81,
        83,
        85,
        87,
        89,
        91,
        93,
        95,
        97,
        99,
        101,
        103,
        105,
        107,
        109,
        111,
        113,
        115,
        117,
        119,
        121,
        123,
        125,
        127,
        129,
        131,
        133,
        135,
        137,
        139,
        141,
        143,
        145,
        147,
        149,
        151,
        153,
        155,
        157,
        159,
        161,
        163,
        165,
        167,
        169,
        171,
        173,
        175,
        177,
        179,
        181,
        183,
        185,
        187,
        189,
        191,
        193,
        195,
        197,
        199,
        201,
        203,
        205,
        207,
        209
      ],
      "name": "RootNode"
    },
    {
      "children": [
        4
      ],
      "matrix": [
        0.018224440900194705,
        0.7421910818896794,
        -0.6699404956541308,
        0.0,
        0.9994574025472308,
        0.004863865922642097,
        0.03257672945261608,
        0.0,
        0.027436658823874527,
        -0.6701706803283127,
        -0.7416997296621246,
        0.0,
        1.59585702419281,
        -17.085912704467773,
        18.90631675720215,
        1.0
      ],
      "name": "_20171019_003023_jpg"
    },
    {
      "name": "Object_4"
    },
    {
      "children": [
        6
      ],
      "matrix": [
        -0.03716246964787584,
        0.7540583568113809,
        -0.6557552480709483,
        0.0,
        0.997834731392775,
        0.06363509723570382,
        0.016625980455633793,
        0.0,
        0.054266008476571204,
        -0.6537174993242285,
        -0.754790455292923,
        0.0,
        4.120813846588135,
        -17.165470123291016,
        19.07852554321289,
        1.0
      ],
      "name": "_20171019_003024_jpg"
    },
    {
      "name": "Object_6"
    },
    {
      "children": [
        8
      ],
      "matrix": [
        -0.1309294460975372,
        0.7483120802863394,
        -0.6502972479121554,
        0.0,
        0.9834375866129867,
        0.18095819676997915,
        0.010229577634579434,
        0.0,
        0.12533153386684648,
        -0.6381874031342899,
        -0.7596109827400437,
        0.0,
        5.719768524169922,
        -16.89923095703125,
        18.996923446655273,
        1.0
      ],
      "name": "_20171019_003025_jpg"
    },
    {
      "name": "Object_8"
    },
    {
      "children": [
        10
      ],
      "matrix": [
        -0.2615282314958469,
        0.7203579029255225,
        -0.6424075620845371,
        0.0,
        0.9373161182703222,
        0.3483628313365693,
        0.009046113741504103,
        0.0,
        0.23030735672424793,
        -0.5997731483118535,
        -0.7663097885338392,
        0.0,
        10.00595474243164,
        -17.78939437866211,
        19.255699157714844,
        1.0
      ],
      "name": "_20171019_003027_jpg"
    },
    {
      "name": "Object_10"
    },
    {
      "children": [
        12
      ],
      "matrix": [
        -0.43177053647115105,
        0.6388386458418297,
        -0.6367569304015398,
        0.0,
        0.8237601542294836,
        0.5668479807146232,
        0.010127934812764694,
        0.0,
        0.3674144963651155,
        -0.5201620433468128,
        -0.7709980781571615,
        0.0,
        13.795801162719727,
        -14.983384132385254,
        19.017921447753906,
        1.0
      ],
      "name": "_20171019_003033_jpg"
    },
    {
      "name": "Object_12"
    },
    {
      "children": [
        14
      ],
      "matrix": [
        -0.5905011476293844,
        0.4741077013287647,
        -0.6530928587797715,
        0.0,
        0.618008749616404,
        0.7860815984066423,
        0.011870385167603026,
        0.0,
        0.5190121193632657,
        -0.39660762497361696,
        -0.7571847936711604,
        0.0,
        19.45201873779297,
        -11.69389820098877,
        20.02224349975586,
        1.0
      ],
      "name": "_20171019_003035_jpg"
    },
    {
      "name": "Object_14"
    },
    {
      "children": [
        16
      ],
      "matrix": [
        -0.6583156165680091,
        0.2368589641223327,
        -0.7145056893388447,
        0.0,
        0.31765337963402657,
        0.947961369859048,
        0.021577109677575007,
        0.0,
        0.682434523884719,
        -0.21276059872507555,
        -0.6992968241314874,
        0.0,
        19.213289260864258,
        -4.373014450073242,
        19.91539764404297,
        1.0
      ],
      "name": "_20171019_003037_jpg"
    },
    {
      "name": "Object_16"
    },
    {
      "children": [
        18
      ],
      "matrix": [
        -0.6943296686418958,
        0.1244947718687428,
        -0.7088069998391554,
        0.0,
        0.12033793720635105,
        0.9911407141734024,
        0.056203786142554495,
        0.0,
        0.7095245535656641,
        -0.046272416029286535,
        -0.7031598476891703,
        0.0,
        20.924745559692383,
        0.13680148124694824,
        21.120786666870117,
        1.0
      ],
      "name": "_20171019_003039_jpg"
    },
    {
      "name": "Object_18"
    },
    {
      "children": [
        20
      ],
      "matrix": [
        -0.7798683052253954,
        -0.05317817902240139,
        -0.6236806136002072,
        0.0,
        -0.1000456215011941,
        0.9941650632525332,
        0.04033237690152417,
        0.0,
        0.6178966743099604,
        0.09385045702578237,
        -0.7806380669636488,
        0.0,
        23.63353729248047,
        3.003268003463745,
        19.740291595458984,
        1.0
      ],
      "name": "_20171019_003047_jpg"
    },
    {
      "name": "Object_20"
    },
    {
      "children": [
        22
      ],
      "matrix": [
        -0.7515195505565495,
        -0.16660465967117088,
        -0.6383269166400046,
        0.0,
        -0.25786301944639023,
        0.964793191188034,
        0.051776070140560584,
        0.0,
        0.6072273283814494,
        0.20351163508031428,
        -0.7680221260182969,
        0.0,
        22.89914321899414,
        6.706114768981934,
        20.005990982055664,
        1.0
      ],
      "name": "_20171019_003049_jpg"
    },
    {
      "name": "Object_22"
    },
    {
      "children": [
        24
      ],
      "matrix": [
        -0.6366407654337896,
        -0.39948278367854995,
        -0.6596226507119924,
        0.0,
        -0.5554197242003852,
        0.8309213313169936,
        0.03284312913780965,
        0.0,
        0.5349742664437667,
        0.38727670560831773,
        -0.7508790099184568,
        0.0,
        19.09908676147461,
        10.804332733154297,
        19.81891632080078,
        1.0
      ],
      "name": "_20171019_003052_jpg"
    },
    {
      "name": "Object_24"
    },
    {
      "children": [
        26
      ],
      "matrix": [
        -0.5058640464048691,
        -0.5216096938846542,
        -0.687040678417552,
        0.0,
        -0.7457003112797436,
        0.6648053973849204,
        0.04432639580624456,
        0.0,
        0.4336272734874807,
        0.5347495777029053,
        -0.725265659489251,
        0.0,
        15.97889232635498,
        17.282201766967773,
        20.866416931152344,
        1.0
      ],
      "name": "_20171019_003055_jpg"
    },
    {
      "name": "Object_26"
    },
    {
      "children": [
        28
      ],
      "matrix": [
        -0.21605943910817116,
        -0.6632607843235816,
        -0.7165217726983112,
        0.0,
        -0.9631496873175442,
        0.26518209724409925,
        0.04495703639407489,
        0.0,
        0.16019050718560013,
        0.6998311133978602,
        -0.6961145122233354,
        0.0,
        9.243449211120605,
        21.292280197143555,
        21.256338119506836,
        1.0
      ],
      "name": "_20171019_003058_jpg"
    },
    {
      "name": "Object_28"
    },
    {
      "children": [
        30
      ],
      "matrix": [
        0.05004169108665768,
        -0.7353735592733956,
        -0.6758117766617899,
        0.0,
        -0.9908710463209303,
        -0.1213664263305021,
        0.058692078874646,
        0.0,
        -0.12518146314871226,
        0.6667052713765959,
        -0.734733749328699,
        0.0,
        -0.9358202815055847,
        18.605884552001953,
        20.50368881225586,
        1.0
      ],
      "name": "_20171019_003103_jpg"
    },
    {
      "name": "Object_30"
    },
    {
      "children": [
        32
      ],
      "matrix": [
        0.40256943723517424,
        -0.5241907349223949,
        -0.7504411513407795,
        0.0,
        -0.7777118970879393,
        -0.6282483206053258,
        0.02163914934710226,
        0.0,
        -0.48280643464232476,
        0.5749157512871841,
        -0.6605829437624462,
        0.0,
        -13.532844543457031,
        16.287010192871094,
        21.80184555053711,
        1.0
      ],
      "name": "_20171019_003108_jpg"
    },
    {
      "name": "Object_32"
    },
    {
      "children": [
        34
      ],
      "matrix": [
        0.6041234842693034,
        -0.2440556057959959,
        -0.7585984952752453,
        0.0,
        -0.35997447068884697,
        -0.9328652208715669,
        0.0134484252062477,
        0.0,
        -0.7109523164084924,
        0.26495158230852867,
        -0.6514195751016438,
        0.0,
        -18.592220306396484,
        7.145946502685547,
        24.23090934753418,
        1.0
      ],
      "name": "_20171019_003111_jpg"
    },
    {
      "name": "Object_34"
    },
    {
      "children": [
        36
      ],
      "matrix": [
        0.6426455168158474,
        0.12250530855015114,
        -0.7563062799511351,
        0.0,
        0.17155088389793552,
        -0.9850787153114924,
        -0.013791985864893982,
        0.0,
        -0.746710810120176,
        -0.12088165293911503,
        -0.654072314069613,
        0.0,
        -18.9810848236084,
        -4.154510498046875,
        24.4100284576416,
        1.0
      ],
      "name": "_20171019_003115_jpg"
    },
    {
      "name": "Object_36"
    },
    {
      "children": [
        38
      ],
      "matrix": [
        0.47216614674742785,
        0.4437326659766735,
        -0.7616826445514696,
        0.0,
        0.6885604343599142,
        -0.7251657431263157,
        0.00437872471680717,
        0.0,
        -0.5504031777704167,
        -0.5265320181539705,
        -0.6479354719097687,
        0.0,
        -15.064697265625,
        -13.574812889099121,
        24.699804306030273,
        1.0
      ],
      "name": "_20171019_003119_jpg"
    },
    {
      "name": "Object_38"
    },
    {
      "children": [
        40
      ],
      "matrix": [
        0.21758110462194835,
        0.6468489387030891,
        -0.7309205930948859,
        0.0,
        0.9488933073093961,
        -0.31558096680439607,
        0.003185079942235991,
        0.0,
        -0.2286043618458069,
        -0.6942586721744926,
        -0.6824550841305101,
        0.0,
        -5.909061908721924,
        -18.500988006591797,
        24.907949447631836,
        1.0
      ],
      "name": "_20171019_003121_jpg"
    },
    {
      "name": "Object_40"
    },
    {
      "children": [
        42
      ],
      "matrix": [
        0.03506420836088331,
        0.8944612235171943,
        -0.4457685732710959,
        0.0,
        0.9987714397887795,
        -0.046991801096306185,
        -0.015728372197206103,
        0.0,
        -0.03501588716958631,
        -0.4446694168186621,
        -0.8950100543523956,
        0.0,
        2.3257956504821777,
        -25.53955841064453,
        18.4094181060791,
        1.0
      ],
      "name": "_20171019_003125_jpg"
    },
    {
      "name": "Object_42"
    },
    {
      "children": [
        44
      ],
      "matrix": [
        -0.02259629546389852,
        0.9617454597515873,
        -0.2730111317849804,
        0.0,
        0.04171438519542309,
        0.2737500349695463,
        0.960895846812723,
        0.0,
        0.9988740248395069,
        0.010324194950696253,
        -0.04630435724145143,
        0.0,
        0.19938337802886963,
        -21.413040161132813,
        12.070497512817383,
        1.0
      ],
      "name": "_20171019_003129_jpg"
    },
    {
      "name": "Object_44"
    },
    {
      "children": [
        46
      ],
      "matrix": [
        0.17076968656122027,
        0.8059116265944521,
        -0.566872264510857,
        0.0,
        0.1915216368930439,
        0.5372000494741728,
        0.8214228931839893,
        0.0,
        0.9665180685085983,
        -0.24884243401162648,
        -0.06261202984712844,
        0.0,
        -7.020561695098877,
        -16.847352981567383,
        17.734027862548828,
        1.0
      ],
      "name": "_20171019_003132_jpg"
    },
    {
      "name": "Object_46"
    },
    {
      "children": [
        48
      ],
      "matrix": [
        -0.4192812292546131,
        0.7064827335303157,
        -0.5701626066468003,
        0.0,
        -0.2438290962516177,
        0.5173256684807451,
        0.8203179411375017,
        0.0,
        0.8745002130450629,
        0.48296614783490077,
        -0.04464389577150207,
        0.0,
        11.92380142211914,
        -15.838780403137207,
        20.10809326171875,
        1.0
      ],
      "name": "_20171019_003134_jpg"
    },
    {
      "name": "Object_48"
    },
    {
      "children": [
        50
      ],
      "matrix": [
        -0.3752570951592158,
        0.6751563846934159,
        -0.6350952438338549,
        0.0,
        -0.23400868728765045,
        0.5939677370626045,
        0.7697027098839131,
        0.0,
        0.8968957836931657,
        0.43745420735940455,
        -0.06489814833242358,
        0.0,
        9.562607765197754,
        -13.890716552734375,
        23.905345916748047,
        1.0
      ],
      "name": "_20171019_003135_jpg"
    },
    {
      "name": "Object_50"
    },
    {
      "children": [
        52
      ],
      "matrix": [
        -0.19205560285740608,
        0.5824847353728334,
        -0.7898266762199913,
        0.0,
        -0.10029027747230523,
        0.7889463839950566,
        0.60622228878989,
        0.0,
        0.9762461296494889,
        0.19564032365227027,
        -0.09310401766641752,
        0.0,
        5.918591022491455,
        -19.514175415039063,
        35.453277587890625,
        1.0
      ],
      "name": "_20171019_003138_jpg"
    },
    {
      "name": "Object_52"
    },
    {
      "children": [
        54
      ],
      "matrix": [
        0.152385023061806,
        0.565996360573444,
        -0.810201780153604,
        0.0,
        -0.07815939774713421,
        0.8241097234338558,
        0.5610118290068213,
        0.0,
        0.9852258184245165,
        -0.02216491731068876,
        0.16981991388041695,
        0.0,
        -7.915102958679199,
        -15.951249122619629,
        34.71957015991211,
        1.0
      ],
      "name": "_20171019_003141_jpg"
    },
    {
      "name": "Object_54"
    },
    {
      "children": [
        56
      ],
      "matrix": [
        -0.5515439763937231,
        -0.33131394830975847,
        -0.76552616530018,
        0.0,
        -0.6923211092824355,
        -0.3300917314420946,
        0.6416626297950488,
        0.0,
        -0.4652856367283841,
        0.8838950822857646,
        -0.04731553408029354,
        0.0,
        16.78660774230957,
        7.47458553314209,
        23.40593147277832,
        1.0
      ],
      "name": "_20171019_003146_jpg"
    },
    {
      "name": "Object_56"
    },
    {
      "children": [
        58
      ],
      "matrix": [
        -0.2895813684341664,
        -0.5591701612566792,
        -0.7768341919714754,
        0.0,
        -0.3169539510607032,
        -0.7097979890659694,
        0.6290683648260462,
        0.0,
        -0.9031516063002962,
        0.4283871443893777,
        0.028313081059987755,
        0.0,
        10.88761043548584,
        13.94058609008789,
        22.9229793548584,
        1.0
      ],
      "name": "_20171019_003150_jpg"
    },
    {
      "name": "Object_58"
    },
    {
      "children": [
        60
      ],
      "matrix": [
        0.12789804140489247,
        -0.5770564620002508,
        -0.8066275042846889,
        0.0,
        0.16804783503791673,
        -0.7889380869289624,
        0.5910470540760173,
        0.0,
        -0.9774466819954231,
        -0.21114576637153412,
        -0.003930546974155291,
        0.0,
        -0.3647229075431824,
        13.966320991516113,
        22.50647735595703,
        1.0
      ],
      "name": "_20171019_003153_jpg"
    },
    {
      "name": "Object_60"
    },
    {
      "children": [
        62
      ],
      "matrix": [
        0.5202532745479356,
        -0.3139011890947141,
        -0.7942308063825496,
        0.0,
        0.6482620219800306,
        -0.4602745964778092,
        0.6065506134656466,
        0.0,
        -0.5559612227309678,
        -0.8304296112989435,
        -0.03596914646433458,
        0.0,
        -10.719564437866211,
        10.339171409606934,
        21.30293846130371,
        1.0
      ],
      "name": "_20171019_003155_jpg"
    },
    {
      "name": "Object_62"
    },
    {
      "children": [
        64
      ],
      "matrix": [
        0.6108309266351857,
        0.033906146247420554,
        -0.7910347352124615,
        0.0,
        0.7909908075084124,
        0.01792600881917006,
        0.611565369069411,
        0.0,
        0.03491592048321368,
        -0.9992642450595657,
        -0.01586968942186129,
        0.0,
        -14.603144645690918,
        4.317653656005859,
        23.382434844970703,
        1.0
      ],
      "name": "_20171019_003157_jpg"
    },
    {
      "name": "Object_64"
    },
    {
      "children": [
        66
      ],
      "matrix": [
        0.4955212856069927,
        0.40777027017539164,
        -0.7669302851442765,
        0.0,
        0.6424755349390914,
        0.4221324532561208,
        0.639554046905105,
        0.0,
        0.5845372892426295,
        -0.8096465887466314,
        -0.05280680652928593,
        0.0,
        -14.001437187194824,
        -5.902586936950684,
        23.870485305786133,
        1.0
      ],
      "name": "_20171019_003200_jpg"
    },
    {
      "name": "Object_66"
    },
    {
      "children": [
        68
      ],
      "matrix": [
        0.09376199446934697,
        0.6457393051856226,
        -0.7577792806164071,
        0.0,
        0.16773465831646822,
        0.7400067158082642,
        0.6513487122564414,
        0.0,
        0.9813632216425209,
        -0.18817760306969683,
        -0.03892835612193002,
        0.0,
        -4.104667663574219,
        -15.562796592712402,
        24.90340232849121,
        1.0
      ],
      "name": "_20171019_003204_jpg"
    },
    {
      "name": "Object_68"
    },
    {
      "children": [
        70
      ],
      "matrix": [
        -0.26555965481250565,
        0.5941555796134121,
        -0.7592477968029364,
        0.0,
        -0.2858987760933142,
        0.7035674194745454,
        0.6505803379155214,
        0.0,
        0.9207279508976621,
        0.389835905822154,
        -0.016970768032497308,
        0.0,
        7.378109455108643,
        -16.674774169921875,
        26.281890869140625,
        1.0
      ],
      "name": "_20171019_003207_jpg"
    },
    {
      "name": "Object_70"
    },
    {
      "children": [
        72
      ],
      "matrix": [
        -0.6878484284767281,
        0.09299695873103148,
        -0.7198722838871313,
        0.0,
        -0.7123914239738465,
        0.10363351011874034,
        0.6940882902260954,
        0.0,
        0.13915099169826617,
        0.9902583810537773,
        -0.005033911217066089,
        0.0,
        18.51717185974121,
        -2.338503360748291,
        23.80191421508789,
        1.0
      ],
      "name": "_20171019_003212_jpg"
    },
    {
      "name": "Object_72"
    },
    {
      "children": [
        74
      ],
      "matrix": [
        -0.4569192655566585,
        -0.4343511842572018,
        -0.7762498524943693,
        0.0,
        -0.5711247581600638,
        -0.5257772041266859,
        0.6303767462695097,
        0.0,
        -0.6819393634186051,
        0.7313667892070924,
        -0.007830981109433033,
        0.0,
        14.602540969848633,
        11.591754913330078,
        26.24300765991211,
        1.0
      ],
      "name": "_20171019_003217_jpg"
    },
    {
      "name": "Object_74"
    },
    {
      "children": [
        76
      ],
      "matrix": [
        -0.028614586318764346,
        -0.5794874288297445,
        -0.8144786831330199,
        0.0,
        -0.04772133657575517,
        -0.8130912929863854,
        0.5801768896682733,
        0.0,
        -0.9984507396387815,
        0.055469533061133613,
        -0.004387643644408801,
        0.0,
        3.247713565826416,
        16.87238883972168,
        23.409778594970703,
        1.0
      ],
      "name": "_20171019_003221_jpg"
    },
    {
      "name": "Object_76"
    },
    {
      "children": [
        78
      ],
      "matrix": [
        0.07589753665187382,
        -0.801389124819881,
        -0.593308549197298,
        0.0,
        0.04593258240398318,
        -0.5915831960589792,
        0.8049344818147279,
        0.0,
        -0.996057107702103,
        -0.08834473816288302,
        -0.008089835292073966,
        0.0,
        1.935158371925354,
        26.22234535217285,
        20.06098747253418,
        1.0
      ],
      "name": "_20171019_003225_jpg"
    },
    {
      "name": "Object_78"
    },
    {
      "children": [
        80
      ],
      "matrix": [
        0.4658925950223324,
        -0.5634348772670962,
        -0.6822647792333774,
        0.0,
        0.38826627622766235,
        -0.5626874316339097,
        0.7298165201100469,
        0.0,
        -0.7951058977568093,
        -0.6049165176784695,
        -0.043389146017087876,
        0.0,
        -9.789872169494629,
        15.262798309326172,
        20.043169021606445,
        1.0
      ],
      "name": "_20171019_003231_jpg"
    },
    {
      "name": "Object_80"
    },
    {
      "children": [
        82
      ],
      "matrix": [
        0.6483838062783552,
        -0.09942203973397029,
        -0.7547938114287431,
        0.0,
        0.7360835669369488,
        -0.17125324458306768,
        0.6548689248278241,
        0.0,
        -0.19436929346316673,
        -0.9801977271116826,
        -0.037854900920759604,
        0.0,
        -18.067184448242188,
        6.824933052062988,
        23.724451065063477,
        1.0
      ],
      "name": "_20171019_003238_jpg"
    },
    {
      "name": "Object_82"
    },
    {
      "children": [
        84
      ],
      "matrix": [
        0.0841654430466614,
        -0.9304509827103775,
        -0.3566190502063116,
        0.0,
        0.02318607716803983,
        -0.3559633167285907,
        0.9342122472806373,
        0.0,
        -0.9961820034623778,
        -0.0868969845096686,
        -0.008386301974619537,
        0.0,
        -0.4033382534980774,
        20.993633270263672,
        10.485851287841797,
        1.0
      ],
      "name": "_20171019_003247_jpg"
    },
    {
      "name": "Object_84"
    },
    {
      "children": [
        86
      ],
      "matrix": [
        0.6173013392927159,
        0.1564937369022194,
        -0.7710050368303687,
        0.0,
        0.7613514669346293,
        0.12806316139001883,
        0.6355657090272271,
        0.0,
        0.19819939531670427,
        -0.979341379195821,
        -0.040093175116468815,
        0.0,
        -15.184728622436523,
        -1.9013464450836182,
        21.633434295654297,
        1.0
      ],
      "name": "_20171019_003303_jpg"
    },
    {
      "name": "Object_86"
    },
    {
      "children": [
        88
      ],
      "matrix": [
        0.36948769436900997,
        0.5659379911145929,
        -0.7370163050591567,
        0.0,
        0.4411115251287526,
        0.5912578152036891,
        0.6751554031177904,
        0.0,
        0.8178627428294181,
        -0.5745679996081745,
        -0.031179283471591157,
        0.0,
        -12.92759895324707,
        -14.00741958618164,
        24.87635040283203,
        1.0
      ],
      "name": "_20171019_003307_jpg"
    },
    {
      "name": "Object_88"
    },
    {
      "children": [
        90
      ],
      "matrix": [
        0.05591584008249473,
        0.6364030955502054,
        -0.7693273157778716,
        0.0,
        -0.0058653850990738055,
        0.7707289040380956,
        0.6371362128602296,
        0.0,
        0.9984182570874335,
        -0.03111360561478488,
        0.04682870337879519,
        0.0,
        -2.723237991333008,
        -12.477258682250977,
        23.350778579711914,
        1.0
      ],
      "name": "_20171019_003400_jpg"
    },
    {
      "name": "Object_90"
    },
    {
      "children": [
        92
      ],
      "matrix": [
        -0.26844969717466816,
        0.5974276328724305,
        -0.7556553338442555,
        0.0,
        0.23280901511040217,
        0.8014327757952404,
        0.5509133038550262,
        0.0,
        0.9347377827873191,
        -0.028030864445825532,
        -0.3542309247768556,
        0.0,
        8.551581382751465,
        -10.431649208068848,
        22.191553115844727,
        1.0
      ],
      "name": "_20171019_003402_jpg"
    },
    {
      "name": "Object_92"
    },
    {
      "children": [
        94
      ],
      "matrix": [
        -0.04804111642179065,
        0.5432123765100985,
        -0.838219759454046,
        0.0,
        -0.02263484558362272,
        0.8383811654825287,
        0.5446142535130368,
        0.0,
        0.9985888617936579,
        0.04513685157837022,
        -0.02798123891536397,
        0.0,
        1.7748171091079712,
        -13.785554885864258,
        28.50090217590332,
        1.0
      ],
      "name": "_20171019_003414_jpg"
    },
    {
      "name": "Object_94"
    },
    {
      "children": [
        96
      ],
      "matrix": [
        -0.4191359955978433,
        -0.41832741054414624,
        -0.8058084107166132,
        0.0,
        -0.5870170850777613,
        -0.5522113120091876,
        0.5920081154138853,
        0.0,
        -0.6926297416520699,
        0.7211552152460116,
        -0.014113699106390598,
        0.0,
        15.387064933776855,
        11.194327354431152,
        25.57913589477539,
        1.0
      ],
      "name": "_20171019_003431_jpg"
    },
    {
      "name": "Object_96"
    },
    {
      "children": [
        98
      ],
      "matrix": [
        -0.1140988803871461,
        -0.6433666708024459,
        -0.757007775650275,
        0.0,
        -0.16781626398837246,
        -0.7385527287895912,
        0.6529759324342925,
        0.0,
        -0.9791931101858228,
        0.2015420395302828,
        -0.0236993516069397,
        0.0,
        5.998664379119873,
        18.178356170654297,
        22.070804595947266,
        1.0
      ],
      "name": "_20171019_003434_jpg"
    },
    {
      "name": "Object_98"
    },
    {
      "children": [
        100
      ],
      "matrix": [
        0.25537814576935813,
        -0.5755904156184383,
        -0.7768382560814047,
        0.0,
        0.25154995473959163,
        -0.7362536373869419,
        0.6282142960049591,
        0.0,
        -0.933544119436202,
        -0.3558458302168098,
        -0.04323334573446158,
        0.0,
        -7.399548053741455,
        15.268945693969727,
        22.496353149414063,
        1.0
      ],
      "name": "_20171019_003436_jpg"
    },
    {
      "name": "Object_100"
    },
    {
      "children": [
        102
      ],
      "matrix": [
        0.33809058004691284,
        -0.3965371950053349,
        -0.8534945885363555,
        0.0,
        0.48573247869861336,
        -0.7032463957569379,
        0.5191420479908914,
        0.0,
        -0.806076124705876,
        -0.5900870781775999,
        -0.045149987231227096,
        0.0,
        -7.746593952178955,
        14.023375511169434,
        28.701452255249023,
        1.0
      ],
      "name": "_20171019_003455_jpg"
    },
    {
      "name": "Object_102"
    },
    {
      "children": [
        104
      ],
      "matrix": [
        0.4847626211987536,
        -0.17698435013565544,
        -0.8565522406109118,
        0.0,
        0.7968559099520227,
        -0.3143749191969183,
        0.5159351402593791,
        0.0,
        -0.3605909869409491,
        -0.9326547860741353,
        -0.011366184494429499,
        0.0,
        -13.59671688079834,
        9.454606056213379,
        27.948570251464844,
        1.0
      ],
      "name": "_20171019_003458_jpg"
    },
    {
      "name": "Object_104"
    },
    {
      "children": [
        106
      ],
      "matrix": [
        0.5486280129371721,
        0.07665526850935267,
        -0.8325450577778772,
        0.0,
        0.8328691339830636,
        0.03689654286480104,
        0.5522387624777234,
        0.0,
        0.07305004503018225,
        -0.9963747361983768,
        -0.043601330102456703,
        0.0,
        -15.521937370300293,
        2.6773886680603027,
        27.119054794311523,
        1.0
      ],
      "name": "_20171019_003502_jpg"
    },
    {
      "name": "Object_106"
    },
    {
      "children": [
        108
      ],
      "matrix": [
        0.41497244694793967,
        0.34211873810126564,
        -0.8430614671031033,
        0.0,
        0.7170032626476901,
        0.4474522231869308,
        0.5345024128267716,
        0.0,
        0.5600930187268959,
        -0.8262815966757765,
        -0.059619907483341894,
        0.0,
        -16.02334976196289,
        -7.769294738769531,
        29.914777755737305,
        1.0
      ],
      "name": "_20171019_003509_jpg"
    },
    {
      "name": "Object_108"
    },
    {
      "children": [
        110
      ],
      "matrix": [
        0.11802270701463158,
        0.6003049239461217,
        -0.7910149422830012,
        0.0,
        0.21595317070379552,
        0.7620008544861991,
        0.6105071054666602,
        0.0,
        0.9692444834467288,
        -0.2428758860989364,
        -0.03970434812134216,
        0.0,
        -5.24951696395874,
        -12.85775089263916,
        23.726215362548828,
        1.0
      ],
      "name": "_20171019_003515_jpg"
    },
    {
      "name": "Object_110"
    },
    {
      "children": [
        112
      ],
      "matrix": [
        -0.0875595384165484,
        0.6139710560164531,
        -0.7844570540229225,
        0.0,
        0.0010950906573409802,
        0.7875403937766026,
        0.6162620619076319,
        0.0,
        0.9961586861583516,
        0.05310057009331692,
        -0.06962902733078757,
        0.0,
        0.9253174066543579,
        -15.3062162399292,
        24.681072235107422,
        1.0
      ],
      "name": "_20171019_003521_jpg"
    },
    {
      "name": "Object_112"
    },
    {
      "children": [
        114
      ],
      "matrix": [
        -0.061947153245232256,
        0.7127251307626088,
        -0.6987026822506367,
        0.0,
        -0.01319317269978798,
        0.6994012693323913,
        0.7146074479393238,
        0.0,
        0.9979922296285305,
        0.05348600224041927,
        -0.033922811873613457,
        0.0,
        1.135311245918274,
        -17.552818298339844,
        22.197900772094727,
        1.0
      ],
      "name": "_20171019_003528_jpg"
    },
    {
      "name": "Object_114"
    },
    {
      "children": [
        116
      ],
      "matrix": [
        0.08029000814689868,
        0.7051033014159407,
        -0.704544426508444,
        0.0,
        0.11236619329869263,
        0.6959181848922823,
        0.7092754884667818,
        0.0,
        0.990417767003062,
        -0.13611470996395786,
        -0.02335449712787363,
        0.0,
        -3.4637832641601563,
        -15.997431755065918,
        22.268306732177734,
        1.0
      ],
      "name": "_20171019_003531_jpg"
    },
    {
      "name": "Object_116"
    },
    {
      "children": [
        118
      ],
      "matrix": [
        0.24222484623741247,
        0.6627389283671135,
        -0.7085931390382438,
        0.0,
        0.2821176390952989,
        0.6506734561050881,
        0.705006163967064,
        0.0,
        0.9282977763501088,
        -0.3706766331279463,
        -0.029361063951657718,
        0.0,
        -8.614192008972168,
        -14.057774543762207,
        22.179471969604492,
        1.0
      ],
      "name": "_20171019_003532_jpg"
    },
    {
      "name": "Object_118"
    },
    {
      "children": [
        120
      ],
      "matrix": [
        -0.3296377824952468,
        0.618247427623461,
        -0.7135187808240158,
        0.0,
        -0.295631404509906,
        0.6501585292493843,
        0.6999256814203763,
        0.0,
        0.8966275731981015,
        0.44166050885408686,
        -0.03154346048917778,
        0.0,
        7.438223361968994,
        -15.547804832458496,
        22.578392028808594,
        1.0
      ],
      "name": "_20171019_003535_jpg"
    },
    {
      "name": "Object_120"
    },
    {
      "children": [
        122
      ],
      "matrix": [
        -0.37271621169750424,
        0.5984795356155302,
        -0.7091578604142245,
        0.0,
        -0.32359869094744753,
        0.6324212705926857,
        0.7037948733253401,
        0.0,
        0.8696933440902946,
        0.49179831430308135,
        -0.042046465888206264,
        0.0,
        9.633688926696777,
        -14.796883583068848,
        23.192485809326172,
        1.0
      ],
      "name": "_20171019_003537_jpg"
    },
    {
      "name": "Object_122"
    },
    {
      "children": [
        124
      ],
      "matrix": [
        -0.6221331699154959,
        0.39821667513519715,
        -0.6740725469377655,
        0.0,
        -0.5194201661104327,
        0.4342661998889715,
        0.7359453503296304,
        0.0,
        0.5857926338976172,
        0.8079828879860395,
        -0.06332963597741403,
        0.0,
        16.13231658935547,
        -10.683433532714844,
        22.15692710876465,
        1.0
      ],
      "name": "_20171019_003541_jpg"
    },
    {
      "name": "Object_124"
    },
    {
      "children": [
        126
      ],
      "matrix": [
        0.218679657863043,
        0.5952598716415639,
        -0.7732043018828667,
        0.0,
        0.3570367048174202,
        0.6886264407429246,
        0.6311247234286181,
        0.0,
        0.908132148230653,
        -0.4140764546831904,
        -0.06194102862383666,
        0.0,
        -5.723567962646484,
        -10.008919715881348,
        22.19245147705078,
        1.0
      ],
      "name": "_20171019_003548_jpg"
    },
    {
      "name": "Object_126"
    },
    {
      "children": [
        128
      ],
      "matrix": [
        0.6316633220681949,
        -0.14538520437667551,
        -0.7614884043123207,
        0.0,
        0.7396302998210766,
        -0.18127390625021444,
        0.6481410267058961,
        0.0,
        -0.2322680932464819,
        -0.9726268108895318,
        -0.006972775523619967,
        0.0,
        -15.699499130249023,
        6.182568550109863,
        23.2611026763916,
        1.0
      ],
      "name": "_20171019_003555_jpg"
    },
    {
      "name": "Object_128"
    },
    {
      "children": [
        130
      ],
      "matrix": [
        0.5009979189683632,
        -0.44449578211747853,
        -0.742579682504942,
        0.0,
        0.5148196894021382,
        -0.5366442688531741,
        0.6685608544559936,
        0.0,
        -0.6956736106776333,
        -0.7172422382896961,
        -0.04002248143145826,
        0.0,
        -11.669829368591309,
        12.398837089538574,
        22.375553131103516,
        1.0
      ],
      "name": "_20171019_003559_jpg"
    },
    {
      "name": "Object_130"
    },
    {
      "children": [
        132
      ],
      "matrix": [
        0.13878862187829943,
        -0.5957007972683581,
        -0.791124692176249,
        0.0,
        0.10913479621582961,
        -0.7847902979606989,
        0.6100768676828245,
        0.0,
        -0.984290259370706,
        -0.17101095976749478,
        -0.04390827880193582,
        0.0,
        -1.9969384670257568,
        15.642383575439453,
        22.47137451171875,
        1.0
      ],
      "name": "_20171019_003602_jpg"
    },
    {
      "name": "Object_132"
    },
    {
      "children": [
        134
      ],
      "matrix": [
        0.06635408634309714,
        -0.8175425479022032,
        -0.5720326193453891,
        0.0,
        0.02358856335939724,
        -0.5718505851300155,
        0.8200185900118964,
        0.0,
        -0.997517275491614,
        -0.06790501200966487,
        -0.018659968910873515,
        0.0,
        1.1833709478378296,
        21.841598510742188,
        18.017614364624023,
        1.0
      ],
      "name": "_20171019_003609_jpg"
    },
    {
      "name": "Object_134"
    },
    {
      "children": [
        136
      ],
      "matrix": [
        -0.5775837579671643,
        -0.5161684844494567,
        -0.6324295203369932,
        0.0,
        -0.4880908179200128,
        -0.40262914880511946,
        0.774375310811649,
        0.0,
        -0.6543426900292393,
        0.7559496439536274,
        -0.019385040925487207,
        0.0,
        18.542861938476563,
        12.04702091217041,
        20.44210433959961,
        1.0
      ],
      "name": "_20171019_003614_jpg"
    },
    {
      "name": "Object_136"
    },
    {
      "children": [
        138
      ],
      "matrix": [
        -0.7861819562159911,
        0.0422409333288839,
        -0.6165497832875317,
        0.0,
        -0.6149623996245774,
        0.04524262998454098,
        0.7872574874080674,
        0.0,
        0.06114882475059563,
        0.998082565714674,
        -0.009592353623290473,
        0.0,
        25.653602600097656,
        -3.22841477394104,
        21.331628799438477,
        1.0
      ],
      "name": "_20171019_003618_jpg"
    },
    {
      "name": "Object_138"
    },
    {
      "children": [
        140
      ],
      "matrix": [
        -0.7941240871365935,
        0.05824926877355946,
        -0.604957814162953,
        0.0,
        -0.6003201935998517,
        0.08004704244240646,
        0.7957437628737408,
        0.0,
        0.09477657614468343,
        0.9950876814047943,
        -0.02859907220036728,
        0.0,
        25.440322875976563,
        -4.812375068664551,
        21.55927276611328,
        1.0
      ],
      "name": "_20171019_003620_jpg"
    },
    {
      "name": "Object_140"
    },
    {
      "children": [
        142
      ],
      "matrix": [
        -0.7810955036513103,
        0.13465194504884373,
        -0.6097201553747991,
        0.0,
        -0.5945050704155744,
        0.13820577022603808,
        0.7921255495982947,
        0.0,
        0.19092808967220842,
        0.9812074290234408,
        -0.027900641629367673,
        0.0,
        24.447343826293945,
        -6.831524848937988,
        20.938615798950195,
        1.0
      ],
      "name": "_20171019_003621_jpg"
    },
    {
      "name": "Object_142"
    },
    {
      "children": [
        144
      ],
      "matrix": [
        -0.47677416967551633,
        0.5944983675769494,
        -0.6475014147309366,
        0.0,
        -0.36576598075596867,
        0.5356418928296456,
        0.7611195766550083,
        0.0,
        0.7993132292486134,
        0.5997161441834102,
        -0.03793294022267091,
        0.0,
        12.969234466552734,
        -18.602956771850586,
        22.733814239501953,
        1.0
      ],
      "name": "_20171019_003626_jpg"
    },
    {
      "name": "Object_144"
    },
    {
      "children": [
        146
      ],
      "matrix": [
        -0.4425478098580409,
        0.6185402244731366,
        -0.6492760789514528,
        0.0,
        -0.31396562600371114,
        0.5713352700553667,
        0.7582885960364029,
        0.0,
        0.8399863223159941,
        0.5394293279934667,
        -0.058642803672470434,
        0.0,
        11.46338939666748,
        -18.52322006225586,
        22.612422943115234,
        1.0
      ],
      "name": "_20171019_003627_jpg"
    },
    {
      "name": "Object_146"
    },
    {
      "children": [
        148
      ],
      "matrix": [
        -0.3631664780054926,
        0.6656422835783402,
        -0.6519436015221705,
        0.0,
        -0.2386506890317016,
        0.6099187114727682,
        0.7556752040527017,
        0.0,
        0.9006419698624866,
        0.4300226920849768,
        -0.06264604069060731,
        0.0,
        8.818072319030762,
        -19.09086799621582,
        21.74850082397461,
        1.0
      ],
      "name": "_20171019_003628_jpg"
    },
    {
      "name": "Object_148"
    },
    {
      "children": [
        150
      ],
      "matrix": [
        -0.2838378698435975,
        0.7045541931927052,
        -0.6504148310864576,
        0.0,
        -0.15917834539679443,
        0.6342789255339765,
        0.7565398198245767,
        0.0,
        0.9455677225875404,
        0.31826660754474484,
        -0.06788260839546134,
        0.0,
        4.659850597381592,
        -18.544206619262695,
        21.335956573486328,
        1.0
      ],
      "name": "_20171019_003630_jpg"
    },
    {
      "name": "Object_150"
    },
    {
      "children": [
        152
      ],
      "matrix": [
        0.09913079480219011,
        0.692123958132651,
        -0.7149388170330928,
        0.0,
        0.11146247209819898,
        0.7062326516364199,
        0.6991505982807633,
        0.0,
        0.9888120159239795,
        -0.1489962024394692,
        -0.007136443299879058,
        0.0,
        -2.9403584003448486,
        -14.524130821228027,
        21.86046600341797,
        1.0
      ],
      "name": "_20171019_003634_jpg"
    },
    {
      "name": "Object_152"
    },
    {
      "children": [
        154
      ],
      "matrix": [
        0.16485237761964666,
        0.6795864440217578,
        -0.714832818703095,
        0.0,
        0.21182478719740755,
        0.6834435089469029,
        0.6985951829257898,
        0.0,
        0.9633036661001153,
        -0.26658438660245454,
        -0.03128596646854054,
        0.0,
        -4.866169452667236,
        -13.093684196472168,
        20.99683380126953,
        1.0
      ],
      "name": "_20171019_003636_jpg"
    },
    {
      "name": "Object_154"
    },
    {
      "children": [
        156
      ],
      "matrix": [
        0.5038407396064869,
        0.42058336628486825,
        -0.7544893247205534,
        0.0,
        0.6068568138637659,
        0.4492366736891338,
        0.6556761536611205,
        0.0,
        0.6147107584709307,
        -0.7882233458970948,
        -0.028890143697841264,
        0.0,
        -12.856695175170898,
        -5.886214256286621,
        22.589473724365234,
        1.0
      ],
      "name": "_20171019_003641_jpg"
    },
    {
      "name": "Object_156"
    },
    {
      "children": [
        158
      ],
      "matrix": [
        0.5510873379495924,
        0.3686833456253123,
        -0.7485822176689467,
        0.0,
        0.6582307740796094,
        0.3593088240313076,
        0.6615356506098496,
        0.0,
        0.5128693732386347,
        -0.8573037732517951,
        -0.04466818064399769,
        0.0,
        -13.465985298156738,
        -4.093057632446289,
        22.49991798400879,
        1.0
      ],
      "name": "_20171019_003643_jpg"
    },
    {
      "name": "Object_158"
    },
    {
      "children": [
        160
      ],
      "matrix": [
        0.6029051712213069,
        0.2874250323565617,
        -0.7442393467759119,
        0.0,
        0.6921481437468601,
        0.2755023527510906,
        0.6671052396259451,
        0.0,
        0.3967824361314176,
        -0.9173250810936346,
        -0.03283890945470613,
        0.0,
        -14.905048370361328,
        -1.8157215118408203,
        22.26777458190918,
        1.0
      ],
      "name": "_20171019_003644_jpg"
    },
    {
      "name": "Object_160"
    },
    {
      "children": [
        162
      ],
      "matrix": [
        0.5929961138367459,
        -0.46714720442898355,
        -0.6558422816262327,
        0.0,
        0.48221835389095297,
        -0.44625533509109383,
        0.7538710997733202,
        0.0,
        -0.6448418939129318,
        -0.7633018179573012,
        -0.039360723543428566,
        0.0,
        -13.628039360046387,
        13.249269485473633,
        19.415132522583008,
        1.0
      ],
      "name": "_20171019_003658_jpg"
    },
    {
      "name": "Object_162"
    },
    {
      "children": [
        164
      ],
      "matrix": [
        -0.3123188941902644,
        -0.546998587855807,
        -0.776691350032639,
        0.0,
        -0.41634528245710045,
        -0.656069813722854,
        0.6294672392566407,
        0.0,
        -0.8538814403109413,
        0.5199662916049583,
        -0.022837282830926453,
        0.0,
        10.981951713562012,
        14.271944046020508,
        23.77704429626465,
        1.0
      ],
      "name": "_20171019_003706_jpg"
    },
    {
      "name": "Object_164"
    },
    {
      "children": [
        166
      ],
      "matrix": [
        -0.2227114607745082,
        -0.4524562083732816,
        -0.8635293768854414,
        0.0,
        -0.433533431717253,
        -0.7474047074118633,
        0.5034232482931729,
        0.0,
        -0.8731828954023017,
        0.4864869811650269,
        -0.02969929854040565,
        0.0,
        7.671773433685303,
        9.743121147155762,
        27.671791076660156,
        1.0
      ],
      "name": "_20171019_003708_jpg"
    },
    {
      "name": "Object_166"
    },
    {
      "children": [
        168
      ],
      "matrix": [
        -0.07626347126851107,
        -0.4354840246575308,
        -0.8969601703632979,
        0.0,
        -0.32710679146021293,
        -0.8388665005943376,
        0.4350909573425028,
        0.0,
        -0.9419050004807714,
        0.32658331011962316,
        -0.07847491077171287,
        0.0,
        5.488452434539795,
        12.414558410644531,
        31.612403869628906,
        1.0
      ],
      "name": "_20171019_003718_jpg"
    },
    {
      "name": "Object_168"
    },
    {
      "children": [
        170
      ],
      "matrix": [
        -0.006505892739103736,
        -0.3566946535770683,
        -0.9341983715834677,
        0.0,
        0.03147226777379192,
        -0.9338283736707473,
        0.35633420392746773,
        0.0,
        -0.9994834514492185,
        -0.027083069194289267,
        0.017301376886690867,
        0.0,
        0.8616193532943726,
        16.424821853637695,
        38.26400375366211,
        1.0
      ],
      "name": "_20171019_003722_jpg"
    },
    {
      "name": "Object_170"
    },
    {
      "children": [
        172
      ],
      "matrix": [
        -0.5407776890224139,
        0.8295995157381455,
        -0.13901127487585913,
        0.0,
        -0.05865583530436608,
        0.12766722500549776,
        0.9900810939736919,
        0.0,
        0.8391179798099457,
        0.543567588388445,
        -0.020378734338659,
        0.0,
        12.366342544555664,
        -17.529354095458984,
        8.510419845581055,
        1.0
      ],
      "name": "_20171019_004528_jpg"
    },
    {
      "name": "Object_172"
    },
    {
      "children": [
        174
      ],
      "matrix": [
        -0.8746117483978586,
        0.47867266343411286,
        -0.07698552360887939,
        0.0,
        -0.056521512448367534,
        0.05703802093141608,
        0.9967707774602825,
        0.0,
        0.4815180247872242,
        0.876138770657434,
        -0.022830820306994903,
        0.0,
        22.573413848876953,
        -10.731341361999512,
        8.733284950256348,
        1.0
      ],
      "name": "_20171019_004537_jpg"
    },
    {
      "name": "Object_174"
    },
    {
      "children": [
        176
      ],
      "matrix": [
        -0.9293502539835132,
        0.17071224804589952,
        -0.3273613199324184,
        0.0,
        -0.32359947962027835,
        0.05022184205351654,
        0.944860383003879,
        0.0,
        0.17773992857617843,
        0.9840401897015524,
        0.008568712964505343,
        0.0,
        21.941177368164063,
        -3.5027244091033936,
        12.686470031738281,
        1.0
      ],
      "name": "_20171019_004545_jpg"
    },
    {
      "name": "Object_176"
    },
    {
      "children": [
        178
      ],
      "matrix": [
        -0.8728041537284004,
        -0.2614900905740063,
        -0.4121114433815794,
        0.0,
        -0.3891854088793921,
        -0.13666485606075773,
        0.9109651116443881,
        0.0,
        -0.2945295006443855,
        0.9554818939412145,
        0.017513526220569453,
        0.0,
        26.75218391418457,
        6.938515663146973,
        16.06488037109375,
        1.0
      ],
      "name": "_20171019_004549_jpg"
    },
    {
      "name": "Object_178"
    },
    {
      "children": [
        180
      ],
      "matrix": [
        -0.6381358997482764,
        -0.6155876430820701,
        -0.4624223471428688,
        0.0,
        -0.3160988573034111,
        -0.33818067951869013,
        0.8864058553573273,
        0.0,
        -0.7020427948949663,
        0.7118185735740106,
        0.021218681653800142,
        0.0,
        23.266704559326172,
        13.589252471923828,
        17.651668548583984,
        1.0
      ],
      "name": "_20171019_004551_jpg"
    },
    {
      "name": "Object_180"
    },
    {
      "children": [
        182
      ],
      "matrix": [
        -0.11969170029672371,
        -0.8470223253191596,
        -0.5179064368117113,
        0.0,
        -0.10115679548941081,
        -0.5085372486677058,
        0.8550772885791047,
        0.0,
        -0.987644267743398,
        0.15473541006635716,
        -0.024814376180019915,
        0.0,
        12.410323143005371,
        26.60820770263672,
        20.500072479248047,
        1.0
      ],
      "name": "_20171019_004556_jpg"
    },
    {
      "name": "Object_182"
    },
    {
      "children": [
        184
      ],
      "matrix": [
        0.034697226106825685,
        -0.8664630209222681,
        -0.4980340709979077,
        0.0,
        -0.011935887475341134,
        -0.4986578626175613,
        0.8667167187956291,
        0.0,
        -0.9993265918060361,
        -0.024128187332300932,
        -0.02764404972846024,
        0.0,
        0.5306887626647949,
        24.63796615600586,
        19.564369201660156,
        1.0
      ],
      "name": "_20171019_004559_jpg"
    },
    {
      "name": "Object_184"
    },
    {
      "children": [
        186
      ],
      "matrix": [
        0.8833827072847521,
        -0.29962271736376833,
        -0.36036262252044604,
        0.0,
        0.3157596688870834,
        -0.1876820086724802,
        0.9300920895938114,
        0.0,
        -0.3463103001277633,
        -0.9354152504958504,
        -0.07118627090390417,
        0.0,
        -21.675180435180664,
        13.227580070495605,
        14.512904167175293,
        1.0
      ],
      "name": "_20171019_004609_jpg"
    },
    {
      "name": "Object_186"
    },
    {
      "children": [
        188
      ],
      "matrix": [
        0.932529733173207,
        0.012760137377525849,
        -0.3608676705414521,
        0.0,
        0.3610549155688765,
        -0.0183980423712089,
        0.9323630515954924,
        0.0,
        0.005257821931066664,
        -0.9997493140437828,
        -0.021763831866822514,
        0.0,
        -20.999116897583008,
        0.6132240891456604,
        13.326742172241211,
        1.0
      ],
      "name": "_20171019_004632_jpg"
    },
    {
      "name": "Object_188"
    },
    {
      "children": [
        190
      ],
      "matrix": [
        0.8493368937443363,
        0.3825564740595215,
        -0.36369958080793635,
        0.0,
        0.34664164692349503,
        0.11538865019854616,
        0.9308732609885862,
        0.0,
        0.3980783962272871,
        -0.9166984256343546,
        -0.03460616847625286,
        0.0,
        -20.568527221679688,
        -6.255819320678711,
        12.684803009033203,
        1.0
      ],
      "name": "_20171019_004637_jpg"
    },
    {
      "name": "Object_190"
    },
    {
      "children": [
        192
      ],
      "matrix": [
        0.7788938656233955,
        0.5053857069428136,
        -0.3713618630287129,
        0.0,
        0.3191666001632646,
        0.19029819929988878,
        0.9283960774817195,
        0.0,
        0.5398676017640498,
        -0.8416483128725041,
        -0.013080137782184087,
        0.0,
        -19.739465713500977,
        -9.191910743713379,
        12.645059585571289,
        1.0
      ],
      "name": "_20171019_004639_jpg"
    },
    {
      "name": "Object_192"
    },
    {
      "children": [
        194
      ],
      "matrix": [
        0.758321633165265,
        0.5432302473982901,
        -0.36034594348369986,
        0.0,
        0.31465995849167505,
        0.1790871953775548,
        0.9321571149617531,
        0.0,
        0.5709092845589241,
        -0.8202613454036429,
        -0.035127112620074064,
        0.0,
        -19.370471954345703,
        -10.459616661071777,
        13.024829864501953,
        1.0
      ],
      "name": "_20171019_004640_jpg"
    },
    {
      "name": "Object_194"
    },
    {
      "children": [
        196
      ],
      "matrix": [
        0.5858729526905327,
        0.7259450427901524,
        -0.3602175428183373,
        0.0,
        0.26182782203441246,
        0.251094957277163,
        0.9318784867345613,
        0.0,
        0.7669413764521985,
        -0.6402773752666759,
        -0.042962865444749365,
        0.0,
        -15.090439796447754,
        -14.982110023498535,
        13.980884552001953,
        1.0
      ],
      "name": "_20171019_004643_jpg"
    },
    {
      "name": "Object_196"
    },
    {
      "children": [
        198
      ],
      "matrix": [
        0.37167597715585177,
        0.8538621481872923,
        -0.36438496113070445,
        0.0,
        0.1804068947519572,
        0.31858952887280567,
        0.9305665287439475,
        0.0,
        0.9106647683594655,
        -0.4116067832113388,
        -0.03563054424528245,
        0.0,
        -13.216202735900879,
        -20.48211669921875,
        15.428969383239746,
        1.0
      ],
      "name": "_20171019_004646_jpg"
    },
    {
      "name": "Object_198"
    },
    {
      "children": [
        200
      ],
      "matrix": [
        0.32592301350748976,
        0.8739957554768151,
        -0.3604242065604195,
        0.0,
        0.15409085851185467,
        0.3270328844868341,
        0.9323655397896796,
        0.0,
        0.932754092239362,
        -0.3594174618361389,
        -0.028087213069143857,
        0.0,
        -11.232173919677734,
        -21.51449966430664,
        15.22831916809082,
        1.0
      ],
      "name": "_20171019_004647_jpg"
    },
    {
      "name": "Object_200"
    },
    {
      "children": [
        202
      ],
      "matrix": [
        0.2568429590465242,
        0.8940206468102541,
        -0.3670950523572888,
        0.0,
        0.12513845530639128,
        0.34587572131329036,
        0.9298980333399687,
        0.0,
        0.9583173072587993,
        -0.2847754702971908,
        -0.023040619029399467,
        0.0,
        -8.588679313659668,
        -22.78981590270996,
        15.002779960632324,
        1.0
      ],
      "name": "_20171019_004648_jpg"
    },
    {
      "name": "Object_202"
    },
    {
      "children": [
        204
      ],
      "matrix": [
        0.2204868016049053,
        0.9024927259553064,
        -0.3699897970428365,
        0.0,
        0.09843416779775271,
        0.3568003910642493,
        0.9289801911485318,
        0.0,
        0.9704103693427863,
        -0.24124750886622431,
        -0.010166343385800136,
        0.0,
        -6.578523635864258,
        -22.94105339050293,
        14.708678245544434,
        1.0
      ],
      "name": "_20171019_004650_jpg"
    },
    {
      "name": "Object_204"
    },
    {
      "children": [
        206
      ],
      "matrix": [
        0.08512234880164193,
        0.9330057729538714,
        -0.34964898594052957,
        0.0,
        0.05005362496679322,
        0.34647531949427224,
        0.9367227378520422,
        0.0,
        0.9951124661877044,
        -0.09723723883415758,
        -0.01720752805413439,
        0.0,
        -2.5493359565734863,
        -21.607027053833008,
        13.628788948059082,
        1.0
      ],
      "name": "_20171019_004652_jpg"
    },
    {
      "name": "Object_206"
    },
    {
      "children": [
        208
      ],
      "matrix": [
        0.012202497992497396,
        0.5254944592900563,
        -0.850709511113044,
        0.0,
        0.999871756583292,
        -0.0152369833750432,
        0.004929982218131568,
        0.0,
        -0.01037156833779379,
        -0.8506605713168326,
        -0.5256129973441817,
        0.0,
        1.4122053384780884,
        -9.804283142089844,
        23.240530014038086,
        1.0
      ],
      "name": "_20171019_004722_jpg"
    },
    {
      "name": "Object_208"
    },
    {
      "children": [
        210,
        211,
        212,
        213
      ],
      "name": "mainMeshNode"
    },
    {
      "mesh": 0,
      "name": "mainMeshNode_Material_0_0"
    },
    {
      "mesh": 1,
      "name": "mainMeshNode_Material_0_0"
    },
    {
      "mesh": 2,
      "name": "mainMeshNode_Material_0_0"
    },
    {
      "mesh": 3,
      "name": "mainMeshNode_Material_0_0"
    }
  ],
  "samplers": [
    {
      "magFilter": 9729,
      "minFilter": 9987,
      "wrapS": 10497,
      "wrapT": 10497
    }
  ],
  "scene": 0,
  "scenes": [
    {
      "name": "Sketchfab_Scene",
      "nodes": [
        0
      ]
    }
  ],
  "textures": [
    {
      "sampler": 0,
      "source": 0
    }
  ]
}
